<?xml version="1.0" encoding="UTF-8" standalone="no"?>
<!DOCTYPE svg PUBLIC "-//W3C//DTD SVG 1.1//EN"
 "http://www.w3.org/Graphics/SVG/1.1/DTD/svg11.dtd">
<!-- Generated by graphviz version 2.50.0 (0)
 -->
<!-- Pages: 1 -->
<svg width="350pt" height="210pt"
 viewBox="0.00 0.00 350.00 209.60" xmlns="http://www.w3.org/2000/svg" xmlns:xlink="http://www.w3.org/1999/xlink">
<g id="graph0" class="graph" transform="scale(1 1) rotate(0) translate(4 205.6)">
<polygon fill="white" stroke="transparent" points="-4,4 -4,-205.6 346,-205.6 346,4 -4,4"/>
<!-- 2434982246208 -->
<g id="node1" class="node">
<title>2434982246208</title>
<polygon fill="white" stroke="black" points="149,-201.6 95,-201.6 95,-165.6 149,-165.6 149,-201.6"/>
<text text-anchor="middle" x="122" y="-180.9" font-family="Calibri" font-size="9.00">Gewicht</text>
</g>
<!-- 2434982247792 -->
<g id="node2" class="node">
<title>2434982247792</title>
<ellipse fill="lightgray" stroke="black" cx="50" cy="-100.8" rx="27" ry="18"/>
<text text-anchor="middle" x="50" y="-98.1" font-family="Calibri" font-size="9.00">Nein</text>
</g>
<!-- 2434982246208&#45;&gt;2434982247792 -->
<g id="edge1" class="edge">
<title>2434982246208&#45;&gt;2434982247792</title>
<path fill="none" stroke="black" d="M106.73,-165.46C96.07,-153.5 81.72,-137.39 70.12,-124.38"/>
<polygon fill="black" stroke="black" points="72.58,-121.88 63.31,-116.74 67.35,-126.53 72.58,-121.88"/>
<text text-anchor="middle" x="101.94" y="-139.5" font-family="Calibri" font-size="9.00">Leicht</text>
</g>
<!-- 2434981254528 -->
<g id="node3" class="node">
<title>2434981254528</title>
<polygon fill="white" stroke="black" points="149,-118.8 95,-118.8 95,-82.8 149,-82.8 149,-118.8"/>
<text text-anchor="middle" x="122" y="-98.1" font-family="Calibri" font-size="9.00">Größe</text>
</g>
<!-- 2434982246208&#45;&gt;2434981254528 -->
<g id="edge2" class="edge">
<title>2434982246208&#45;&gt;2434981254528</title>
<path fill="none" stroke="black" d="M122,-165.46C122,-154.86 122,-141.01 122,-128.94"/>
<polygon fill="black" stroke="black" points="125.5,-128.91 122,-118.91 118.5,-128.91 125.5,-128.91"/>
<text text-anchor="middle" x="135.36" y="-139.5" font-family="Calibri" font-size="9.00">Schwer</text>
</g>
<!-- 2434982594704 -->
<g id="node4" class="node">
<title>2434982594704</title>
<polygon fill="white" stroke="black" points="270,-118.8 216,-118.8 216,-82.8 270,-82.8 270,-118.8"/>
<text text-anchor="middle" x="243" y="-98.1" font-family="Calibri" font-size="9.00">Farbe</text>
</g>
<!-- 2434982246208&#45;&gt;2434982594704 -->
<g id="edge3" class="edge">
<title>2434982246208&#45;&gt;2434982594704</title>
<path fill="none" stroke="black" d="M147.66,-165.46C165.47,-153.57 189.38,-137.6 208.81,-124.63"/>
<polygon fill="black" stroke="black" points="211,-127.37 217.38,-118.91 207.12,-121.55 211,-127.37"/>
<text text-anchor="middle" x="201.17" y="-139.5" font-family="Calibri" font-size="9.00">Mittel</text>
</g>
<!-- 2434979251216 -->
<g id="node5" class="node">
<title>2434979251216</title>
<ellipse fill="lightgray" stroke="black" cx="27" cy="-18" rx="27" ry="18"/>
<text text-anchor="middle" x="27" y="-15.3" font-family="Calibri" font-size="9.00">Ja</text>
</g>
<!-- 2434981254528&#45;&gt;2434979251216 -->
<g id="edge4" class="edge">
<title>2434981254528&#45;&gt;2434979251216</title>
<path fill="none" stroke="black" d="M101.85,-82.66C86.92,-69.96 66.51,-52.61 50.78,-39.22"/>
<polygon fill="black" stroke="black" points="52.91,-36.45 43.03,-32.63 48.38,-41.78 52.91,-36.45"/>
<text text-anchor="middle" x="90.01" y="-56.7" font-family="Calibri" font-size="9.00">Klein</text>
</g>
<!-- 2434982595856 -->
<g id="node6" class="node">
<title>2434982595856</title>
<ellipse fill="lightgray" stroke="black" cx="99" cy="-18" rx="27" ry="18"/>
<text text-anchor="middle" x="99" y="-15.3" font-family="Calibri" font-size="9.00">Nein</text>
</g>
<!-- 2434981254528&#45;&gt;2434982595856 -->
<g id="edge5" class="edge">
<title>2434981254528&#45;&gt;2434982595856</title>
<path fill="none" stroke="black" d="M117.12,-82.66C114.05,-71.88 110.03,-57.74 106.55,-45.52"/>
<polygon fill="black" stroke="black" points="109.9,-44.49 103.79,-35.83 103.16,-46.41 109.9,-44.49"/>
<text text-anchor="middle" x="123.17" y="-56.7" font-family="Calibri" font-size="9.00">Mittel</text>
</g>
<!-- 2434982598880 -->
<g id="node7" class="node">
<title>2434982598880</title>
<ellipse fill="lightgray" stroke="black" cx="171" cy="-18" rx="27" ry="18"/>
<text text-anchor="middle" x="171" y="-15.3" font-family="Calibri" font-size="9.00">Ja</text>
</g>
<!-- 2434981254528&#45;&gt;2434982598880 -->
<g id="edge6" class="edge">
<title>2434981254528&#45;&gt;2434982598880</title>
<path fill="none" stroke="black" d="M132.39,-82.66C139.26,-71.33 148.38,-56.3 156.03,-43.68"/>
<polygon fill="black" stroke="black" points="159.1,-45.38 161.29,-35.01 153.11,-41.75 159.1,-45.38"/>
<text text-anchor="middle" x="158.82" y="-56.7" font-family="Calibri" font-size="9.00">Groß</text>
</g>
<!-- 2434982593408 -->
<g id="node8" class="node">
<title>2434982593408</title>
<ellipse fill="lightgray" stroke="black" cx="243" cy="-18" rx="27" ry="18"/>
<text text-anchor="middle" x="243" y="-15.3" font-family="Calibri" font-size="9.00">Nein</text>
</g>
<!-- 2434982594704&#45;&gt;2434982593408 -->
<g id="edge7" class="edge">
<title>2434982594704&#45;&gt;2434982593408</title>
<path fill="none" stroke="black" d="M243,-82.66C243,-72.06 243,-58.21 243,-46.14"/>
<polygon fill="black" stroke="black" points="246.5,-46.11 243,-36.11 239.5,-46.11 246.5,-46.11"/>
<text text-anchor="middle" x="258.05" y="-56.7" font-family="Calibri" font-size="9.00">Schwarz</text>
</g>
<!-- 2434982592640 -->
<g id="node9" class="node">
<title>2434982592640</title>
<ellipse fill="lightgray" stroke="black" cx="315" cy="-18" rx="27" ry="18"/>
<text text-anchor="middle" x="315" y="-15.3" font-family="Calibri" font-size="9.00">Ja</text>
</g>
<!-- 2434982594704&#45;&gt;2434982592640 -->
<g id="edge8" class="edge">
<title>2434982594704&#45;&gt;2434982592640</title>
<path fill="none" stroke="black" d="M260.22,-82.61C265.68,-77.02 271.68,-70.72 277,-64.8 283.35,-57.73 290.05,-49.82 296.02,-42.6"/>
<polygon fill="black" stroke="black" points="299,-44.48 302.63,-34.52 293.59,-40.04 299,-44.48"/>
<text text-anchor="middle" x="294.31" y="-56.7" font-family="Calibri" font-size="9.00">Weiß</text>
</g>
</g>
</svg>
